<?xml version="1.0" encoding="UTF-8" standalone="no"?>
<svg
   xmlns:dc="http://purl.org/dc/elements/1.1/"
   xmlns:cc="http://creativecommons.org/ns#"
   xmlns:rdf="http://www.w3.org/1999/02/22-rdf-syntax-ns#"
   xmlns:svg="http://www.w3.org/2000/svg"
   xmlns="http://www.w3.org/2000/svg"
   xmlns:sodipodi="http://sodipodi.sourceforge.net/DTD/sodipodi-0.dtd"
   xmlns:inkscape="http://www.inkscape.org/namespaces/inkscape"
   viewBox="0 0 1600 1600"
   height="1600"
   width="1600"
   xml:space="preserve"
   id="svg2"
   version="1.1"
   sodipodi:docname="nexttracks.svg"
   inkscape:version="0.92.4 5da689c313, 2019-01-14"><sodipodi:namedview
     pagecolor="#ffffff"
     bordercolor="#666666"
     borderopacity="1"
     objecttolerance="10"
     gridtolerance="10"
     guidetolerance="10"
     inkscape:pageopacity="0"
     inkscape:pageshadow="2"
     inkscape:window-width="1916"
     inkscape:window-height="1051"
     id="namedview13"
     showgrid="false"
     inkscape:zoom="0.35355339"
     inkscape:cx="286.84748"
     inkscape:cy="902.36042"
     inkscape:window-x="0"
     inkscape:window-y="25"
     inkscape:window-maximized="0"
     inkscape:current-layer="layer2" /><metadata
     id="metadata8"><rdf:RDF><cc:Work
         rdf:about=""><dc:format>image/svg+xml</dc:format><dc:type
           rdf:resource="http://purl.org/dc/dcmitype/StillImage" /></cc:Work></rdf:RDF></metadata><defs
     id="defs6"><clipPath
       id="clipPath18"
       clipPathUnits="userSpaceOnUse"><path
         id="path16"
         d="M 0,1200 H 1200 V 0 H 0 Z" /></clipPath><filter
       style="color-interpolation-filters:sRGB;"
       inkscape:label="Drop Shadow"
       id="filter846"><feFlood
         flood-opacity="0.498039"
         flood-color="rgb(0,0,0)"
         result="flood"
         id="feFlood836" /><feComposite
         in="flood"
         in2="SourceGraphic"
         operator="in"
         result="composite1"
         id="feComposite838" /><feGaussianBlur
         in="composite1"
         stdDeviation="3"
         result="blur"
         id="feGaussianBlur840" /><feOffset
         dx="6"
         dy="6"
         result="offset"
         id="feOffset842" /><feComposite
         in="SourceGraphic"
         in2="offset"
         operator="over"
         result="composite2"
         id="feComposite844" /></filter></defs><g
     inkscape:groupmode="layer"
     id="layer2"
     inkscape:label="Background"><ellipse
       id="path29"
       cx="799.99756"
       cy="799.99731"
       rx="530.11652"
       ry="530.11609"
       style="fill:#2196f3;fill-opacity:1;stroke-width:0.66265428" /></g><g
     inkscape:groupmode="layer"
     id="layer1"
     inkscape:label="Foreground"><g
       transform="matrix(0.82025144,0,0,-0.82025144,322.39551,1301.6429)"
       id="g10"
       style="fill:#ffffff;fill-opacity:1;filter:url(#filter846)"><g
         id="g12"
         style="fill:#ffffff;fill-opacity:1"><g
           clip-path="url(#clipPath18)"
           id="g14"
           style="fill:#ffffff;fill-opacity:1"><g
             transform="translate(584.25,499.543)"
             id="g20"
             style="fill:#ffffff;fill-opacity:1"><path
               id="path22"
               style="fill:#ffffff;fill-opacity:1;fill-rule:nonzero;stroke:none"
               d="m 0,0 c -130.767,0 -236.775,105.911 -236.775,236.558 0,130.647 106.008,236.557 236.775,236.557 130.767,0 236.775,-105.91 236.775,-236.557 C 236.775,105.911 130.767,0 0,0 m 328.75,244.008 c 0,181.398 -147.186,328.449 -328.75,328.449 -181.564,0 -328.75,-147.051 -328.75,-328.449 0,-50.937 11.612,-99.161 32.329,-142.183 v 0 l 10e-4,-0.002 c 7.348,-15.259 15.851,-29.856 25.379,-43.695 L 0,-408.543 282.384,75.806 c 1.181,1.977 2.34,3.968 3.481,5.971 l 0.003,0.006 v 0 c 8.162,14.329 15.295,29.319 21.258,44.891 13.957,36.441 21.624,75.99 21.624,117.334"
               inkscape:connector-curvature="0" /></g><g
             transform="translate(633.1956,798.5121)"
             id="g24"
             style="fill:#ffffff;fill-opacity:1" /></g></g></g></g></svg>